<svg xmlns="http://www.w3.org/2000/svg" width="23.615" height="24.176" viewBox="0 0 23.615 24.176">
  <g id="Group_6682" data-name="Group 6682" transform="translate(31.605 0.592)">
    <g id="Group_6683" data-name="Group 6683" transform="translate(-30.992 0.008)">
      <path id="Path_7410" data-name="Path 7410" d="M21.968.125H.671A.545.545,0,0,0,.229.989l8,11.074a2.361,2.361,0,0,1,.447,1.382v9.1a.545.545,0,0,0,.741.508l4.234-1.638A.545.545,0,0,0,14,20.91V13.4a2.361,2.361,0,0,1,.447-1.382L22.409.989A.545.545,0,0,0,21.968.125Z" transform="translate(-0.125 -0.125)" fill="none" stroke="#a07fb5" stroke-width="1.2"/>
    </g>
  </g>
</svg>
