<svg xmlns="http://www.w3.org/2000/svg" width="58.513" height="58.237" viewBox="0 0 58.513 58.237">
  <g id="MF-Icon-Search" transform="translate(0 0)">
    <g id="Group_5803" data-name="Group 5803">
      <g id="Group_5802" data-name="Group 5802">
        <g id="Group_5799" data-name="Group 5799">
          <path id="Path_7085" data-name="Path 7085" d="M27.973,50.806A22.783,22.783,0,1,1,50.756,28.023,22.8,22.8,0,0,1,27.973,50.806Zm0-42.251A19.468,19.468,0,1,0,47.441,28.023,19.491,19.491,0,0,0,27.973,8.554Z" transform="translate(-5.19 -5.24)" fill="#cfbed9"/>
        </g>
        <g id="Group_5800" data-name="Group 5800" transform="translate(7.465 7.465)">
          <path id="Path_7086" data-name="Path 7086" d="M11.034,23.058H7.69A15.33,15.33,0,0,1,23.008,7.74v3.314A12,12,0,0,0,11.034,23.058Z" transform="translate(-7.69 -7.74)" fill="#cfbed9"/>
        </g>
        <g id="Group_5801" data-name="Group 5801" transform="translate(34.289 34.021)">
          <path id="Path_7087" data-name="Path 7087" d="M35.87,40.876a4.911,4.911,0,0,1-3.434-1.4L16.7,23.737l2.359-2.359L34.795,37.114a1.514,1.514,0,0,0,2.15,0l.209-.209a1.514,1.514,0,0,0,0-2.15L21.418,19.019l2.359-2.359L39.513,32.4a4.884,4.884,0,0,1,0,6.868l-.209.209A4.963,4.963,0,0,1,35.87,40.876Z" transform="translate(-16.7 -16.66)" fill="#cfbed9"/>
        </g>
      </g>
    </g>
  </g>
</svg>
