<svg xmlns="http://www.w3.org/2000/svg" xmlns:xlink="http://www.w3.org/1999/xlink" width="162.582" height="39.44" viewBox="0 0 162.582 39.44">
  <defs>
    <clipPath id="clip-path">
      <path id="Path_2875" data-name="Path 2875" d="M33.1,16.373a5.818,5.818,0,0,0-4.13,1.718,5.9,5.9,0,0,0-1.714,4.157v27.69a5.883,5.883,0,0,0,1.714,4.153,5.822,5.822,0,0,0,4.13,1.722h76.69a5.864,5.864,0,0,0,5.844-5.875V22.248a5.9,5.9,0,0,0-1.712-4.157,5.824,5.824,0,0,0-4.131-1.718Z" transform="translate(-27.257 -16.373)" fill="#a07fb5"/>
    </clipPath>
  </defs>
  <g id="Group_4130" data-name="Group 4130" transform="translate(-139.418 -37.781)">
    <g id="Group_4118" data-name="Group 4118" transform="translate(139.418 37.781)">
      <g id="Group_4117" data-name="Group 4117" clip-path="url(#clip-path)">
        <rect id="Rectangle_1515" data-name="Rectangle 1515" width="88.25" height="39.533" transform="translate(0 0)" fill="#a07fb5"/>
      </g>
    </g>
    <g id="Group_4120" data-name="Group 4120" transform="translate(145.697 44.828)">
      <g id="Group_4122" data-name="Group 4122" transform="translate(0)">
        <path id="Path_2876" data-name="Path 2876" d="M33.011,45.274a2.152,2.152,0,0,0,2.418,2.431,2.154,2.154,0,0,0,2.418-2.431V37.186a3.578,3.578,0,0,1,3.51-3.759c1.885,0,2.647,1.394,2.647,3.126v8.722a2.152,2.152,0,0,0,2.418,2.431,2.154,2.154,0,0,0,2.418-2.431V37.186a3.578,3.578,0,0,1,3.51-3.759c1.885,0,2.647,1.394,2.647,3.126v8.722a2.418,2.418,0,1,0,4.835,0V35.322c0-4.361-2.682-5.893-6.029-5.893a6.561,6.561,0,0,0-5.694,3.064,4.81,4.81,0,0,0-4.632-3.064,6.794,6.794,0,0,0-5.826,3.064h-.067V31.86a2.29,2.29,0,1,0-4.571,0Z" transform="translate(-33.011 -22.227)" fill="#fff"/>
        <path id="Path_2877" data-name="Path 2877" d="M72.009,40.981c0,1.8-1.625,3.529-4.272,3.529-1.656,0-2.682-.9-2.682-2,0-1.465,1.093-2.1,3.114-2.395l1.752-.271a4.341,4.341,0,0,0,2.088-.761Zm4.831-6.557c0-3.494-3.21-4.994-7.843-4.994-4.967,0-7.685,2.467-7.685,4.4a1.93,1.93,0,0,0,2.053,1.864c1.92,0,2.021-2.665,5.6-2.665,1.621,0,3.047.6,3.047,2s-.929,1.664-2.088,1.8l-2.946.336c-3.708.429-6.755,1.563-6.755,5.591,0,3.059,2.717,4.959,5.465,4.959A8.306,8.306,0,0,0,72.3,44.877a2.621,2.621,0,0,0,2.85,2.829,2.027,2.027,0,0,0,2.184-1.864c0-.766-.5-1.231-.5-3.263Z" transform="translate(-30.523 -22.227)" fill="#fff"/>
        <path id="Path_2878" data-name="Path 2878" d="M79.059,25.831A2.515,2.515,0,1,0,81.574,23.3a2.521,2.521,0,0,0-2.515,2.532m.1,20a2.418,2.418,0,1,0,4.835,0V32.42a2.418,2.418,0,1,0-4.835,0Z" transform="translate(-28.801 -22.787)" fill="#fff"/>
        <path id="Path_2879" data-name="Path 2879" d="M91.139,39.165c0-2.263.762-5.393,3.84-5.393,2.947-.031,3.876,2.9,3.876,5.393,0,2.762-1.061,5.3-3.876,5.3-2.58-.067-3.84-2.431-3.84-5.3m12.282-13.313a2.415,2.415,0,1,0-4.831,0v6.592h-.067a5.3,5.3,0,0,0-4.768-2.466c-5.1,0-7.447,4.36-7.447,9.023,0,6.291,3.541,9.253,7.579,9.253,2.351,0,4.307-1,5.1-3.064h.067v.766a2.011,2.011,0,0,0,2.184,2.3c1.493,0,2.184-.8,2.184-2.3Z" transform="translate(-28.138 -22.776)" fill="#fff"/>
        <g id="Group_4129" data-name="Group 4129">
          <path id="Path_2880" data-name="Path 2880" d="M111.687,49.583a1.9,1.9,0,1,0,3.792,0v-9.59h1.171c1.114,0,1.714-.336,1.714-1.253s-.6-1.253-1.714-1.253h-1.171V35.839a.8.8,0,0,1,.832-.89c.287,0,.547.08.833.08a1.277,1.277,0,0,0,1.22-1.306c0-1.279-1.119-1.828-2.493-1.828-2.21,0-4.183,1.279-4.183,3.684v1.908h-.859c-1.065,0-1.506.417-1.506,1.253s.441,1.253,1.506,1.253h.859Z" transform="translate(-26.033 -22.002)" fill="#a07fb5"/>
          <path id="Path_2881" data-name="Path 2881" d="M119.034,33.882a1.976,1.976,0,1,0,1.973-1.987,1.979,1.979,0,0,0-1.973,1.987m.075,15.7a1.9,1.9,0,1,0,3.8,0V39.054a1.9,1.9,0,1,0-3.8,0Z" transform="translate(-25.146 -22.002)" fill="#a07fb5"/>
          <path id="Path_2882" data-name="Path 2882" d="M125.247,49.143a1.9,1.9,0,1,0,3.8,0v-6.3a2.955,2.955,0,0,1,2.885-3.007c1.638,0,2.391,1.1,2.391,2.639v6.663a1.9,1.9,0,1,0,3.792,0V41.722c0-3.865-2.493-5.016-4.783-5.016a5.433,5.433,0,0,0-4.6,2.4h-.052v-.5c0-1.15-.52-1.908-1.712-1.908s-1.718.757-1.718,1.908Z" transform="translate(-24.578 -21.561)" fill="#a07fb5"/>
          <path id="Path_2883" data-name="Path 2883" d="M142.779,44.35c0-1.776.6-4.234,3.012-4.234,2.316-.026,3.043,2.272,3.043,4.234,0,2.169-.833,4.153-3.043,4.153-2.026-.053-3.012-1.909-3.012-4.153m9.64-10.454a1.9,1.9,0,1,0-3.792,0v5.176h-.052a4.162,4.162,0,0,0-3.744-1.935c-4,0-5.848,3.423-5.848,7.08,0,4.941,2.783,7.266,5.954,7.266a3.967,3.967,0,0,0,4-2.4h.053v.6a1.579,1.579,0,0,0,1.717,1.8c1.168,0,1.714-.629,1.714-1.8Z" transform="translate(-23.322 -21.992)" fill="#a07fb5"/>
          <path id="Path_2884" data-name="Path 2884" d="M157.04,42.4a3.416,3.416,0,0,1,3.458-3.033,3.259,3.259,0,0,1,3.2,3.033Zm8.574,2.192c1.273,0,1.664-.341,1.664-1.647,0-3.135-2.5-6.243-6.861-6.243-4.5,0-7.174,2.98-7.174,7.421,0,3.316,2,6.924,7.306,6.924,2.285,0,5.949-1.071,5.949-3.369a1.573,1.573,0,0,0-1.559-1.492c-1.532,0-1.532,1.882-4.391,1.882a3.282,3.282,0,0,1-3.51-3.475Z" transform="translate(-22.018 -21.561)" fill="#a07fb5"/>
          <path id="Path_2885" data-name="Path 2885" d="M168.243,49.143a1.9,1.9,0,1,0,3.8,0V44.7c0-3.161.833-4.233,2.365-4.233h.673a1.738,1.738,0,0,0,1.872-1.908,1.917,1.917,0,0,0-2.079-1.855c-1.845,0-2.7,1.647-3.144,3.24h-.052V38.482a1.716,1.716,0,1,0-3.43,0Z" transform="translate(-20.646 -21.561)" fill="#a07fb5"/>
        </g>
        <path id="Path_2886" data-name="Path 2886" d="M81.675,28.8a3.555,3.555,0,0,1-1.656-.372,2.688,2.688,0,0,1-1.11-1.062,3.213,3.213,0,0,1-.37-1.541,3.113,3.113,0,0,1,.37-1.523,2.7,2.7,0,0,1,1.11-1.081,3.445,3.445,0,0,1,1.656-.39,3.5,3.5,0,0,1,1.673.39,2.512,2.512,0,0,1,1.093,1.062,3.038,3.038,0,0,1,.387,1.524,2.888,2.888,0,0,1-.863,2.142,3.123,3.123,0,0,1-2.29.85" transform="translate(-28.848 -22.83)" fill="#fff"/>
      </g>
    </g>
  </g>
</svg>
