<svg xmlns="http://www.w3.org/2000/svg" width="30.357" height="31.875" viewBox="0 0 30.357 31.875">
  <g id="Group_5982" data-name="Group 5982" transform="translate(0 0)" opacity="0.5">
    <g id="Group_5757" data-name="Group 5757" transform="translate(0 0)">
      <path id="Path_7176" data-name="Path 7176" d="M30.357,2.5V2.05a.494.494,0,0,0-.494-.494H23.6a.039.039,0,0,1-.039-.039c0-.078,0-.326,0-.6h0V.48A.479.479,0,0,0,23.079,0H7.088A.508.508,0,0,0,6.58.509V.942c0,.263,0,.575,0,.575s-.014.039-.035.039H.667A.664.664,0,0,0,0,2.22C0,6.077,0,14.2,0,14.2a.54.54,0,0,0,.54.54h6a.044.044,0,0,1,.044.043c0,.473,0,3.312,0,3.312a.516.516,0,0,0,.516.516H8.324a.041.041,0,0,1,.04.045c-.174,1.47-.346,2.924-.517,4.379-.05.422-.081.847-.144,1.267a3.656,3.656,0,0,0,1.2,3.367c.515.487,1.07.932,1.594,1.411a.685.685,0,0,1,.192.42c0,.592,0,1.34,0,1.835a.537.537,0,0,0,.537.536h1.348a.48.48,0,0,0,.484-.42.466.466,0,0,0-.463-.512h-.917a.042.042,0,0,1-.042-.042V29.35a.983.983,0,0,0-.423-.9c-.438-.347-.843-.736-1.277-1.089A3.29,3.29,0,0,1,8.65,24.044c.248-1.533.377-3.086.557-4.63.057-.49.347-.778.769-.765a.758.758,0,0,1,.721.846s0,2.68,0,3.8a.478.478,0,0,0,.419.482.465.465,0,0,0,.511-.462l0-12.632a.741.741,0,0,1,1.482,0l0,5.526c0,.018,0,.035,0,.052v.344a.493.493,0,0,0,.465.5.48.48,0,0,0,.494-.479v-.35a.846.846,0,0,1,.772-.854.827.827,0,0,1,.882.825v.713h0v.029a.493.493,0,0,0,.465.5.48.48,0,0,0,.494-.479v-.064h0V16.94a.817.817,0,0,1,.558-.784.829.829,0,0,1,1.094.781c0,.119,0,.238,0,.347a.478.478,0,0,0,.957,0V17.16c0-.41.387-.593.79-.557a.647.647,0,0,1,.626.476,15.446,15.446,0,0,1,.878,5.367,18.085,18.085,0,0,1-.707,3.179c-.274,1-.574,1.99-.834,2.992a4.582,4.582,0,0,0-.094.983c-.014.417,0,.835,0,1.289a.054.054,0,0,1-.053.053h-.3c-1.436,0-2.871,0-4.307,0h-.468a.468.468,0,1,0,0,.936h5.755l.023-.007a.743.743,0,0,0,.288-.693c-.013-.612-.011-1.224,0-1.835a2.4,2.4,0,0,1,.086-.585c.334-1.217.661-2.436,1.026-3.643a10.981,10.981,0,0,0,.387-5.189c-.074-.414-.176-.823-.271-1.252a.046.046,0,0,1,.044-.055h.312c1.091,0,1.091,0,1.091-1.109V6.441A.039.039,0,0,1,23.6,6.4h5.763a.039.039,0,0,1,.039.039v7.327a.043.043,0,0,1-.043.043H25.28a.467.467,0,0,0,0,.933s2.8,0,4.121,0h.454a.5.5,0,0,0,.5-.5V13.79h0c0-3.814,0-10.513,0-11.289M6.562,13.747a.039.039,0,0,1-.039.039H.989a.039.039,0,0,1-.039-.039V6.432a.039.039,0,0,1,.039-.039H6.523a.039.039,0,0,1,.039.039Zm0-8.366a.039.039,0,0,1-.039.039H1a.039.039,0,0,1-.039-.039V2.542A.039.039,0,0,1,1,2.5H6.524a.039.039,0,0,1,.039.039ZM22.6,17.622a.039.039,0,0,1-.039.039h-.7a.038.038,0,0,1-.037-.028c-.054-.194-.119-.4-.164-.607A1.693,1.693,0,0,0,20.353,15.7l-.062-.012-.093-.014-.068-.007q-.061-.005-.121-.006h-.04a1.568,1.568,0,0,0-.87.261l-.007.005c-.031.02-.06.042-.089.064a1.781,1.781,0,0,0-2.5-.5,1.78,1.78,0,0,0-2.432-.808V12.366h0V11.191A4.926,4.926,0,0,0,14,10.205,1.684,1.684,0,0,0,12.33,9,1.713,1.713,0,0,0,10.7,10.725v.7h0c-.007,2.251,0,3.734,0,5.986v.2a.041.041,0,0,1-.041.041H7.569a.039.039,0,0,1-.039-.039V4.44A.039.039,0,0,1,7.569,4.4h15a.039.039,0,0,1,.039.039Zm0-14.245a.039.039,0,0,1-.039.039H7.578a.039.039,0,0,1-.039-.039V.985A.039.039,0,0,1,7.578.946H22.566a.039.039,0,0,1,.039.039Zm6.8,2a.039.039,0,0,1-.039.039H23.621a.039.039,0,0,1-.039-.039V2.551a.039.039,0,0,1,.039-.039h5.748a.039.039,0,0,1,.039.039Z" transform="translate(0 -0.001)" fill="#fff"/>
    </g>
  </g>
</svg>
