<svg xmlns="http://www.w3.org/2000/svg" width="31.012" height="27.644" viewBox="0 0 31.012 27.644">
  <g id="Group_5989" data-name="Group 5989" transform="translate(0.511 0.5)" opacity="0.5">
    <g id="Icon_feather-at-sign" data-name="Icon feather-at-sign" transform="translate(0 8.557)">
      <path id="Path_7180" data-name="Path 7180" d="M19.234,15.617A3.617,3.617,0,1,1,15.617,12,3.617,3.617,0,0,1,19.234,15.617Z" transform="translate(-6.574 -6.574)" fill="none" stroke="#fff" stroke-linecap="round" stroke-linejoin="round" stroke-width="1"/>
      <path id="Path_7181" data-name="Path 7181" d="M15.66,8.426v4.522a2.713,2.713,0,0,0,5.426,0v-.9a9.043,9.043,0,1,0-3.545,7.18" transform="translate(-2.999 -3)" fill="none" stroke="#fff" stroke-linecap="round" stroke-linejoin="round" stroke-width="1"/>
    </g>
    <path id="Icon_feather-phone" data-name="Icon feather-phone" d="M18.909,14.809v2.375a1.583,1.583,0,0,1-1.725,1.583,15.664,15.664,0,0,1-6.831-2.43A15.434,15.434,0,0,1,5.6,11.588a15.664,15.664,0,0,1-2.43-6.862A1.583,1.583,0,0,1,4.749,3H7.124A1.583,1.583,0,0,1,8.707,4.361a10.163,10.163,0,0,0,.554,2.224A1.583,1.583,0,0,1,8.9,8.256L7.9,9.261a12.664,12.664,0,0,0,4.749,4.749L13.654,13a1.583,1.583,0,0,1,1.67-.356,10.163,10.163,0,0,0,2.224.554,1.583,1.583,0,0,1,1.361,1.607Z" transform="translate(11.09 -3)" fill="none" stroke="#fff" stroke-linecap="round" stroke-linejoin="round" stroke-width="1"/>
  </g>
</svg>
