<svg xmlns="http://www.w3.org/2000/svg" width="26.785" height="31" viewBox="0 0 26.785 31">
  <g id="Group_5975" data-name="Group 5975" transform="translate(-169.608 -196.5)" opacity="0.5">
    <path id="Icon_awesome-female" data-name="Icon awesome-female" d="M7.594,0a3.75,3.75,0,1,1-3.75,3.75A3.75,3.75,0,0,1,7.594,0m6.989,20.752L11.77,9.5a1.406,1.406,0,0,0-1.364-1.065H9.74a5.149,5.149,0,0,1-4.294,0H4.781A1.406,1.406,0,0,0,3.417,9.5L.6,20.752A1.407,1.407,0,0,0,1.969,22.5H5.25v6.094A1.406,1.406,0,0,0,6.656,30H8.531a1.406,1.406,0,0,0,1.406-1.406V22.5h3.281A1.407,1.407,0,0,0,14.583,20.752Z" transform="translate(181.262 197)" fill="none" stroke="#fff" stroke-width="1"/>
    <path id="Icon_awesome-female-2" data-name="Icon awesome-female" d="M5.417,0A2.589,2.589,0,1,1,2.828,2.589,2.589,2.589,0,0,1,5.417,0m4.826,15.33L8.3,7.562a.971.971,0,0,0-.942-.736H6.9a3.556,3.556,0,0,1-2.965,0h-.46a.971.971,0,0,0-.942.736L.591,15.33a.971.971,0,0,0,.942,1.207H3.8v4.208a.971.971,0,0,0,.971.971H6.065a.971.971,0,0,0,.971-.971V16.537H9.3A.971.971,0,0,0,10.244,15.33Z" transform="translate(169.551 197.529)" fill="none" stroke="#fff" stroke-width="1"/>
  </g>
</svg>
