<svg id="Icon" xmlns="http://www.w3.org/2000/svg" width="100.516" height="100.042" viewBox="0 0 100.516 100.042">
  <g id="MF-Icon-Search" transform="translate(0 0)">
    <g id="Group_4839" data-name="Group 4839">
      <g id="Group_4838" data-name="Group 4838">
        <g id="Group_4835" data-name="Group 4835">
          <path id="Path_7001" data-name="Path 7001" d="M44.327,83.515A39.137,39.137,0,1,1,83.465,44.377,39.163,39.163,0,0,1,44.327,83.515Zm0-72.581A33.444,33.444,0,1,0,77.771,44.377,33.483,33.483,0,0,0,44.327,10.934Z" transform="translate(-5.19 -5.24)" fill="#cfbed9"/>
        </g>
        <g id="Group_4836" data-name="Group 4836" transform="translate(12.824 12.824)">
          <path id="Path_7002" data-name="Path 7002" d="M13.435,34.054H7.69A26.335,26.335,0,0,1,34,7.74v5.694A20.611,20.611,0,0,0,13.435,34.054Z" transform="translate(-7.69 -7.74)" fill="#cfbed9"/>
        </g>
        <g id="Group_4837" data-name="Group 4837" transform="translate(58.903 58.442)">
          <path id="Path_7003" data-name="Path 7003" d="M49.631,58.259a8.436,8.436,0,0,1-5.9-2.411L16.7,28.817l4.052-4.052L47.784,51.8a2.6,2.6,0,0,0,3.693,0l.359-.359a2.6,2.6,0,0,0,0-3.693L24.8,20.712l4.052-4.052L55.889,43.692a8.39,8.39,0,0,1,0,11.8l-.359.359A8.526,8.526,0,0,1,49.631,58.259Z" transform="translate(-16.7 -16.66)" fill="#cfbed9"/>
        </g>
      </g>
    </g>
  </g>
</svg>
