<svg xmlns="http://www.w3.org/2000/svg" width="191.753" height="239.756" viewBox="0 0 191.753 239.756">
  <g id="Group_5289" data-name="Group 5289" transform="translate(-1475.963 -101.816)">
    <path id="Icon_awesome-female" data-name="Icon awesome-female" d="M54.884,0a28.969,28.969,0,1,1-28.97,28.969A28.97,28.97,0,0,1,54.884,0m53.993,160.319L87.15,73.41a10.864,10.864,0,0,0-10.539-8.229H71.469a39.781,39.781,0,0,1-33.17,0H33.157A10.863,10.863,0,0,0,22.618,73.41L.891,160.319a10.867,10.867,0,0,0,10.539,13.5H36.778v47.075a10.863,10.863,0,0,0,10.864,10.864H62.127A10.863,10.863,0,0,0,72.99,220.892V173.817H98.338A10.868,10.868,0,0,0,108.877,160.319Z" transform="translate(1554.461 105.816)" fill="none" stroke="#cfbed9" stroke-width="8" opacity="0.3"/>
    <path id="Icon_awesome-female-2" data-name="Icon awesome-female" d="M38.073,0a20,20,0,1,1-20,20,20,20,0,0,1,20-20M75.357,110.7l-15-60.013a7.5,7.5,0,0,0-7.277-5.682H49.525a27.47,27.47,0,0,1-22.9,0H23.07a7.5,7.5,0,0,0-7.277,5.682L.789,110.7a7.5,7.5,0,0,0,7.277,9.321h17.5v32.507a7.5,7.5,0,0,0,7.5,7.5h10a7.5,7.5,0,0,0,7.5-7.5V120.026h17.5A7.5,7.5,0,0,0,75.357,110.7Z" transform="translate(1479.438 109.902)" fill="none" stroke="#cfbed9" stroke-width="8" opacity="0.3"/>
  </g>
</svg>
