<svg xmlns="http://www.w3.org/2000/svg" width="206.471" height="183.425" viewBox="0 0 206.471 183.425">
  <g id="Group_5899" data-name="Group 5899" transform="translate(-1435.529 -33)">
    <g id="Path_7010" data-name="Path 7010" transform="translate(1417.549 27.7)" fill="#a07fb5" stroke-linecap="round" stroke-linejoin="round">
      <path d="M 94.53028869628906 153.9305572509766 L 28.83250427246094 153.9305572509766 L 25.2201042175293 145.3008117675781 L 37.83487701416016 132.5487060546875 L 40.36037826538086 129.9957122802734 L 38.09344863891602 127.210578918457 C 32.89237976074219 120.8206176757812 28.86433410644531 113.6556015014648 26.12119674682617 105.91455078125 C 23.37328720092773 98.16007232666016 21.9799919128418 90.01112365722656 21.9799919128418 81.69405364990234 C 21.9799919128418 71.91300964355469 23.89253807067871 62.4292106628418 27.66451454162598 53.50605392456055 C 29.47765159606934 49.21680450439453 31.72212791442871 45.07994079589844 34.3355827331543 41.21037292480469 C 36.92492294311523 37.37650680541992 39.89892578125 33.77143859863281 43.17499160766602 30.49532508850098 C 46.4510383605957 27.21921157836914 50.05603790283203 24.24516677856445 53.88983154296875 21.65578079223633 C 57.75933456420898 19.04228019714355 61.8961296081543 16.79778099060059 66.18528747558594 14.98462104797363 C 75.10826873779297 11.21257591247559 84.59190368652344 9.300007820129395 94.37274169921875 9.300007820129395 C 104.1600570678711 9.300007820129395 113.6544036865234 11.20532608032227 122.5920181274414 14.9630298614502 C 126.8901290893555 16.77009773254395 131.0359039306641 19.00707626342773 134.9141693115234 21.61178016662598 C 138.7580108642578 24.1933479309082 142.37255859375 27.15841674804688 145.6573486328125 30.42459869384766 C 148.9433288574219 33.69196319580078 151.9263305664062 37.28750610351562 154.5234680175781 41.11132431030273 C 157.1457214355469 44.97212219238281 159.3977355957031 49.10000610351562 161.2169494628906 53.38032531738281 C 165.0032348632812 62.28880310058594 166.9230346679688 71.76191711425781 166.9230346679688 81.53652954101562 C 166.9230346679688 91.31123352050781 165.0036315917969 100.7936172485352 161.2181549072266 109.7203063964844 C 159.3996124267578 114.0086441040039 157.1488494873047 118.1457138061523 154.5283508300781 122.0165786743164 C 151.9331359863281 125.8501663208008 148.9530792236328 129.4557647705078 145.6709899902344 132.7332153320312 C 142.3902130126953 136.0093688964844 138.7813262939453 138.9839782714844 134.9445648193359 141.5743865966797 C 131.0734710693359 144.1879577636719 126.9370574951172 146.4327545166016 122.6502227783203 148.2463989257812 C 113.7351531982422 152.0181274414062 104.2742462158203 153.9305572509766 94.53028869628906 153.9305572509766 Z" stroke="none"/>
      <path d="M 94.53029632568359 149.9305572509766 C 132.2421875 149.9305572509766 162.9230499267578 119.2491149902344 162.9230499267578 81.53652954101562 C 162.9230499267578 43.91078186035156 132.1715087890625 13.3000020980835 94.37273406982422 13.3000020980835 C 56.66084671020508 13.3000020980835 25.97998809814453 43.9814453125 25.97998809814453 81.69406127929688 C 25.97998809814453 97.36264038085938 31.38370895385742 112.630615234375 41.19570922851562 124.6855010986328 C 43.77484893798828 127.8541946411133 43.55190277099609 132.4571990966797 40.67856979370117 135.3617858886719 L 29.94002723693848 146.2172241210938 L 31.49441909790039 149.9305572509766 L 94.53029632568359 149.9305572509766 M 94.53029632568359 157.9305572509766 L 26.17057037353516 157.9305572509766 L 20.50018119812012 144.3843841552734 L 34.99118041992188 129.7356414794922 C 23.96537590026855 116.1894989013672 17.97998809814453 99.33553314208984 17.97998809814453 81.69406127929688 C 17.97998809814453 39.48041915893555 52.15984725952148 5.300002574920654 94.37273406982422 5.300002574920654 C 136.5856475830078 5.300002574920654 170.9230499267578 39.32289123535156 170.9230499267578 81.53652954101562 C 170.9230499267578 123.750114440918 136.5856475830078 157.9305572509766 94.53029632568359 157.9305572509766 Z" stroke="none" fill="#cfbed9"/>
    </g>
    <g id="Path_7011" data-name="Path 7011" transform="translate(1514.283 92.556)" fill="#a07fb5" stroke-linecap="round">
      <path d="M 119.6882019042969 119.8691482543945 L 74.16361999511719 119.8691482543945 C 46.83965682983398 119.8691482543945 24.61000442504883 97.63907623291016 24.61000442504883 70.31460571289062 C 24.61000442504883 42.99009323120117 46.83965682983398 20.75998497009277 74.16361999511719 20.75998497009277 C 101.4876251220703 20.75998497009277 123.7173156738281 42.99009323120117 123.7173156738281 70.31460571289062 C 123.7173156738281 76.03823852539062 122.7496795654297 81.63864135742188 120.8412780761719 86.96022033691406 C 118.9367294311523 92.27105712890625 116.1287841796875 97.21149444580078 112.4954223632812 101.6442794799805 L 110.1986236572266 104.446403503418 L 112.7605514526367 107.0083694458008 L 121.424674987793 115.6726303100586 L 119.6882019042969 119.8691482543945 Z" stroke="none"/>
      <path d="M 74.16363525390625 24.75997924804688 C 49.0452880859375 24.75997924804688 28.61000823974609 45.19570159912109 28.61000823974609 70.31459045410156 C 28.61000823974609 95.43345642089844 49.0452880859375 115.8691558837891 74.16363525390625 115.8691558837891 L 115.9644165039062 115.8691558837891 L 104.8082427978516 104.7128448486328 L 109.4018325805664 99.10858917236328 C 116.1502685546875 90.87535095214844 119.7173080444336 80.91854858398438 119.7173080444336 70.31459045410156 C 119.7173080444336 45.19570159912109 99.28202819824219 24.75997924804688 74.16363525390625 24.75997924804688 M 74.16363525390625 16.75997924804688 C 103.6181182861328 16.75997924804688 127.7173080444336 40.70204925537109 127.7173080444336 70.31459045410156 C 127.7173080444336 82.75813293457031 123.4645538330078 94.57163238525391 115.5890045166016 104.1799621582031 L 126.1422424316406 114.7333526611328 L 122.3619613647461 123.8691558837891 L 74.16363525390625 123.8691558837891 C 44.70913696289062 123.8691558837891 20.61000823974609 99.92709350585938 20.61000823974609 70.31459045410156 C 20.61000823974609 40.85958862304688 44.55165863037109 16.75997924804688 74.16363525390625 16.75997924804688 Z" stroke="none" fill="#cfbed9"/>
    </g>
  </g>
</svg>
