<svg xmlns="http://www.w3.org/2000/svg" width="23.078" height="23.025" viewBox="0 0 23.078 23.025">
  <path id="Path_2456" data-name="Path 2456" d="M472.781,96.3c.219.206.431.4.635.6q1.814,1.805,3.622,3.616a1.158,1.158,0,1,1-1.659,1.613q-2-2-4-4a1.916,1.916,0,0,1-.178-.247,10.276,10.276,0,0,1-9.089,1.946,10.066,10.066,0,0,1-6-4.234,10.289,10.289,0,0,1,1.669-13.457,10.348,10.348,0,0,1,15,14.161Zm-.038-6.471a8.017,8.017,0,1,0-2.357,5.69,8.023,8.023,0,0,0,2.357-5.69Z" transform="translate(-454.335 -79.495)" fill="#0032a5"/>
</svg>
