<svg xmlns="http://www.w3.org/2000/svg" width="24" height="24" viewBox="0 0 24 24">
  <g id="Group_5354" data-name="Group 5354" transform="translate(15044 12873)">
    <g id="Rectangle_2255" data-name="Rectangle 2255" transform="translate(-15044 -12873)" fill="#fff" stroke="#e2e2e2" stroke-width="1">
      <rect width="24" height="24" rx="4" stroke="none"/>
      <rect x="0.5" y="0.5" width="23" height="23" rx="3.5" fill="none"/>
    </g>
    <path id="Polygon_7" data-name="Polygon 7" d="M8.1,1.907a1,1,0,0,1,1.807,0L11.465,5.2a1,1,0,0,0,.78.564l3.628.452a1,1,0,0,1,.557,1.725l-2.656,2.469a1,1,0,0,0-.3.922l.686,3.554A1,1,0,0,1,12.7,15.954L9.479,14.2a1,1,0,0,0-.958,0L5.3,15.954A1,1,0,0,1,3.84,14.887l.686-3.554a1,1,0,0,0-.3-.922L1.57,7.942a1,1,0,0,1,.557-1.725l3.628-.452a1,1,0,0,0,.78-.564Z" transform="translate(-15041 -12870)" fill="#f7941d"/>
  </g>
</svg>
