<svg xmlns="http://www.w3.org/2000/svg" xmlns:xlink="http://www.w3.org/1999/xlink" width="214" height="220" viewBox="0 0 214 220">
  <defs>
    <clipPath id="clip-path">
      <rect id="Rectangle_13" data-name="Rectangle 13" width="214" height="220" transform="translate(1429 90)" fill="#fff"/>
    </clipPath>
  </defs>
  <g id="Mask_Group_200" data-name="Mask Group 200" transform="translate(-1429 -90)" clip-path="url(#clip-path)">
    <g id="Group_6151" data-name="Group 6151" transform="matrix(0.966, -0.259, 0.259, 0.966, -25431.553, -8441.728)">
      <g id="svgexport-10_14_" data-name="svgexport-10 (14)" transform="translate(23771.299 15197.951)">
        <g id="Path_7263" data-name="Path 7263" transform="translate(-7 -5)" fill="#a07fb5">
          <path d="M 120.7183456420898 158.4640350341797 L 15.75369071960449 158.4640350341797 C 13.14177417755127 158.4528503417969 11.01117420196533 156.3222961425781 11.00000762939453 153.7103729248047 L 11.00000762939453 13.7536563873291 C 11.01117420196533 11.14173984527588 13.14177417755127 9.011184692382812 15.75369071960449 8.999993324279785 L 120.7183456420898 8.999993324279785 C 123.3302841186523 9.011160850524902 125.4608383178711 11.14171600341797 125.4720077514648 13.7536563873291 L 125.4720077514648 153.7103729248047 C 125.4608383178711 156.3222961425781 123.3302612304688 158.4528503417969 120.7183456420898 158.4640350341797 Z" stroke="none"/>
          <path d="M 15.76729583740234 12.99998474121094 C 15.34502410888672 13.00370788574219 15.00122833251953 13.34893798828125 15.00000762939453 13.74798583984375 L 14.99997711181641 153.6921234130859 C 15.00122833251953 154.1165161132812 15.34756469726562 154.4628295898438 15.74800872802734 154.4640502929688 L 120.7000885009766 154.4640808105469 C 121.1244812011719 154.4628295898438 121.4707870483398 154.1165161132812 121.4720077514648 153.7160186767578 L 121.472038269043 13.7718505859375 C 121.4707870483398 13.34748840332031 121.1244812011719 13.00120544433594 120.724006652832 12.99998474121094 L 15.76729583740234 12.99998474121094 M 15.74800872802734 4.999984741210938 L 120.724006652832 4.999984741210938 C 125.5494232177734 5.014404296875 129.4576110839844 8.922607421875 129.4720153808594 13.74798583984375 L 129.4720153808594 153.7160186767578 C 129.4576110839844 158.5414276123047 125.5494232177734 162.4496002197266 120.7240371704102 162.4640502929688 L 15.74800872802734 162.4640502929688 C 10.92259216308594 162.4496002197266 7.014419555664062 158.5414276123047 7.000015258789062 153.7160186767578 L 7.000015258789062 13.74798583984375 C 7.014389038085938 8.922607421875 10.92259216308594 5.014404296875 15.74800872802734 4.999984741210938 Z" stroke="none" fill="#ae91c0"/>
        </g>
      </g>
      <g id="Group_6147" data-name="Group 6147" transform="translate(23794.514 15230.171)">
        <line id="Line_122" data-name="Line 122" x2="74.86" fill="none" stroke="#ae91c0" stroke-linecap="round" stroke-width="8"/>
        <line id="Line_123" data-name="Line 123" x2="74.86" transform="translate(0 16.124)" fill="none" stroke="#ae91c0" stroke-linecap="round" stroke-width="8"/>
        <line id="Line_124" data-name="Line 124" x2="74.86" transform="translate(0 32.247)" fill="none" stroke="#ae91c0" stroke-linecap="round" stroke-width="8"/>
        <line id="Line_125" data-name="Line 125" x2="38.006" transform="translate(0 48.371)" fill="none" stroke="#ae91c0" stroke-linecap="round" stroke-width="8"/>
      </g>
      <g id="Group_6149" data-name="Group 6149" transform="translate(23921.186 15235.545) rotate(45)">
        <g id="Group_6150" data-name="Group 6150" transform="translate(0 0)">
          <path id="Path_7264" data-name="Path 7264" d="M18.2,113.018l8.529-24.781a30.71,30.71,0,0,0,.556-5.951l-.02-35.359L27.256,16.25V13.645A13.623,13.623,0,0,0,.162,11.584L0,19.67C0,36.99,0,82.228.022,82.287a23.2,23.2,0,0,0,.515,5.952l8.514,24.78s1.22,3.332,4.593,3.332,4.557-3.332,4.557-3.332" transform="translate(0 0)" fill="#a07fb5" stroke="#ae91c0" stroke-width="8"/>
        </g>
      </g>
    </g>
  </g>
</svg>
